<svg width="143" height="134" viewBox="0 0 143 134" fill="none" xmlns="http://www.w3.org/2000/svg">
<path d="M14.3001 34.9885C14.3001 34.1662 13.4998 33.4996 12.5126 33.4996C11.5254 33.4996 10.7251 34.1662 10.7251 34.9885V61.7885C10.7251 62.6108 11.5254 63.2774 12.5126 63.2774C13.4998 63.2774 14.3001 62.6108 14.3001 61.7885V34.9885Z" fill="white"/>
<path d="M21.45 24.514C21.45 23.3094 20.6497 22.333 19.6625 22.333C18.6753 22.333 17.875 23.3094 17.875 24.514V75.9853C17.875 77.1898 18.6753 78.1663 19.6625 78.1663C20.6497 78.1663 21.45 77.1898 21.45 75.9853V24.514Z" fill="white"/>
<path d="M71.5003 29.981C71.5003 27.8128 70.7 26.0552 69.7128 26.0552C68.7256 26.0552 67.9253 27.8128 67.9253 29.981V122.629C67.9253 124.798 68.7256 126.555 69.7128 126.555C70.7 126.555 71.5003 124.798 71.5003 122.629V29.981Z" fill="white"/>
<path d="M28.5999 21.3733C28.5999 19.8476 27.7996 18.6107 26.8124 18.6107C25.8252 18.6107 25.0249 19.8476 25.0249 21.3733V86.5704C25.0249 88.0961 25.8252 89.333 26.8124 89.333C27.7996 89.333 28.5999 88.0961 28.5999 86.5704V21.3733Z" fill="white"/>
<path d="M35.7503 18.0873C35.7503 16.3207 34.95 14.8885 33.9628 14.8885C32.9756 14.8885 32.1753 16.3207 32.1753 18.0873V93.5786C32.1753 95.3453 32.9756 96.7774 33.9628 96.7774C34.95 96.7774 35.7503 95.3453 35.7503 93.5786V18.0873Z" fill="white"/>
<path d="M42.9002 18.3781C42.9002 16.4509 42.0999 14.8885 41.1127 14.8885C40.1255 14.8885 39.3252 16.4509 39.3252 18.3781V100.732C39.3252 102.66 40.1255 104.222 41.1127 104.222C42.0999 104.222 42.9002 102.66 42.9002 100.732V18.3781Z" fill="white"/>
<path d="M50.0501 18.6689C50.0501 16.5811 49.2498 14.8885 48.2626 14.8885C47.2754 14.8885 46.4751 16.5811 46.4751 18.6689V107.886C46.4751 109.974 47.2754 111.666 48.2626 111.666C49.2498 111.666 50.0501 109.974 50.0501 107.886V18.6689Z" fill="white"/>
<path d="M57.2 18.8143C57.2 16.6462 56.3997 14.8885 55.4125 14.8885C54.4253 14.8885 53.625 16.6462 53.625 18.8143V111.463C53.625 113.631 54.4253 115.389 55.4125 115.389C56.3997 115.389 57.2 113.631 57.2 111.463V18.8143Z" fill="white"/>
<path d="M64.3499 22.6819C64.3499 20.4335 63.5496 18.6107 62.5624 18.6107C61.5752 18.6107 60.7749 20.4335 60.7749 22.6819V118.762C60.7749 121.01 61.5752 122.833 62.5624 122.833C63.5496 122.833 64.3499 121.01 64.3499 118.762V22.6819Z" fill="white"/>
<path d="M125.125 34.9885C125.125 34.1662 125.925 33.4996 126.913 33.4996C127.9 33.4996 128.7 34.1662 128.7 34.9885V61.7885C128.7 62.6108 127.9 63.2774 126.913 63.2774C125.925 63.2774 125.125 62.6108 125.125 61.7885V34.9885Z" fill="white"/>
<path d="M117.975 24.514C117.975 23.3094 118.776 22.333 119.763 22.333C120.75 22.333 121.55 23.3094 121.55 24.514V75.9853C121.55 77.1898 120.75 78.1663 119.763 78.1663C118.776 78.1663 117.975 77.1898 117.975 75.9853V24.514Z" fill="white"/>
<path d="M110.825 21.3733C110.825 19.8476 111.626 18.6107 112.613 18.6107C113.6 18.6107 114.4 19.8476 114.4 21.3733V86.5704C114.4 88.0961 113.6 89.333 112.613 89.333C111.626 89.333 110.825 88.0961 110.825 86.5704V21.3733Z" fill="white"/>
<path d="M103.675 18.0873C103.675 16.3207 104.475 14.8885 105.462 14.8885C106.45 14.8885 107.25 16.3207 107.25 18.0873V93.5786C107.25 95.3453 106.45 96.7774 105.462 96.7774C104.475 96.7774 103.675 95.3453 103.675 93.5786V18.0873Z" fill="white"/>
<path d="M96.5251 18.3781C96.5251 16.4509 97.3254 14.8885 98.3126 14.8885C99.2998 14.8885 100.1 16.4509 100.1 18.3781V100.732C100.1 102.66 99.2998 104.222 98.3126 104.222C97.3254 104.222 96.5251 102.66 96.5251 100.732V18.3781Z" fill="white"/>
<path d="M89.3752 18.6689C89.3752 16.5811 90.1755 14.8885 91.1627 14.8885C92.1499 14.8885 92.9502 16.5811 92.9502 18.6689V107.886C92.9502 109.974 92.1499 111.666 91.1627 111.666C90.1755 111.666 89.3752 109.974 89.3752 107.886V18.6689Z" fill="white"/>
<path d="M82.2253 18.8143C82.2253 16.6462 83.0256 14.8885 84.0128 14.8885C85 14.8885 85.8003 16.6462 85.8003 18.8143V111.463C85.8003 113.631 85 115.389 84.0128 115.389C83.0256 115.389 82.2253 113.631 82.2253 111.463V18.8143Z" fill="white"/>
<path d="M75.0754 22.6819C75.0754 20.4335 75.8757 18.6107 76.8629 18.6107C77.8501 18.6107 78.6504 20.4335 78.6504 22.6819V118.762C78.6504 121.01 77.8501 122.833 76.8629 122.833C75.8757 122.833 75.0754 121.01 75.0754 118.762V22.6819Z" fill="white"/>
</svg>
